<?xml version="1.0" encoding="UTF-8"?>
<svg width="136px" height="50px" viewBox="0 0 136 50" version="1.1" xmlns="http://www.w3.org/2000/svg" xmlns:xlink="http://www.w3.org/1999/xlink">
    <title>Logo / Dark</title>
    <g id="Logo-/-Dark" stroke="none" stroke-width="1" fill="none" fill-rule="evenodd">
        <g id="Zeichenfläche-2-Kopie-2" fill="#000000" fill-rule="nonzero">
            <path d="M28.5665999,13.2775 L30.7332999,13.2775 C32.1009999,13.2775 32.6555999,14.3021 32.6555999,16.168 L32.6555999,19.176 C32.6555999,21.0559999 32.1009999,22.0664999 30.7332999,22.0664999 L28.5665999,22.0664999 L28.5665999,13.2775 Z M23.2038999,41.0450999 L31.6967999,41.0450999 C36.1899999,41.0450999 38.1686999,38.0699999 38.1686999,34.2159999 L38.1686999,30.5076999 C38.1686999,26.8651999 36.9278999,25.0885999 33.5391999,24.5010999 L33.5391999,24.4070999 C36.6223999,23.7725999 37.9665999,21.9489999 38.0182999,19.129 L38.0182999,14.9413 C38.0182999,11.4821 36.0442999,8.63859998 31.7437999,8.63859998 L23.2038999,8.63859998 L23.2038999,41.0685999 L23.2038999,41.0450999 Z M28.5665999,27.3680999 L30.5828999,27.3680999 C32.1009999,27.3680999 32.8059999,28.3926999 32.8059999,30.3948999 L32.8059999,33.2148999 C32.8059999,35.2170999 32.1009999,36.2416999 30.5828999,36.2416999 L28.5665999,36.2416999 L28.5665999,27.3680999 Z" id="Shape"></path>
            <path d="M81.8363998,20.4731999 L81.8363998,13.9402 C81.8363998,9.71019998 77.6627998,7.99939998 74.3163998,7.99939998 C70.9699998,7.99939998 66.8621998,9.70549998 66.8621998,13.9402 L66.8621998,35.7434999 C66.8621998,39.9734999 71.0310998,41.6795999 74.3163998,41.6795999 C77.6016998,41.6795999 81.8363998,39.9734999 81.8363998,35.7434999 L81.8363998,28.8015999 L76.4736998,28.8015999 L76.4736998,34.3757999 C76.4736998,36.0160999 75.4396998,36.8573999 74.3774998,36.8573999 C73.3152998,36.8573999 72.2295998,36.0160999 72.2295998,34.3757999 L72.2295998,15.3032 C72.2295998,13.6676 73.2635998,12.8263 74.3774998,12.8263 C75.4913998,12.8263 76.4736998,13.6676 76.4736998,15.3032 L76.4736998,20.4731999 L81.8363998,20.4731999 Z" id="Path"></path>
            <polygon id="Path" points="92.0776998 41.0450999 92.0776998 27.2082999 96.4956998 27.2082999 96.4956998 41.0450999 101.8537 41.0450999 101.8537 8.63859998 96.4956998 8.63859998 96.4956998 22.0194999 92.0776998 22.0194999 92.0776998 8.63859998 86.7149998 8.63859998 86.7149998 41.0450999 92.0776998 41.0450999"></polygon>
            <polygon id="Path" points="112.7342 41.0450999 112.7342 8.63859998 107.3715 8.63859998 107.3715 41.0450999 112.7342 41.0450999"></polygon>
            <path d="M54.7079999,8.63859998 L54.7079999,34.3757999 C54.7079999,36.0160999 53.6739999,36.8573999 52.6117999,36.8573999 C51.5495999,36.8573999 50.4638999,36.0160999 50.4638999,34.3757999 L50.4638999,8.63859998 L45.1199999,8.63859998 L45.1199999,35.7434999 C45.1199999,39.9734999 49.2888999,41.6795999 52.5741999,41.6795999 C55.8594999,41.6795999 60.0941998,39.9734999 60.0941998,35.7434999 L60.0941998,8.63859998 L54.7079999,8.63859998 Z" id="Path"></path>
            <polygon id="Path" points="39.8747999 8.63859998 44.1470999 8.63859998 44.1470999 12.9767 39.8747999 12.9767 39.8747999 8.63859998"></polygon>
            <polygon id="Path" points="61.0247998 8.63859998 65.3628998 8.63859998 65.3628998 12.9767 61.0247998 12.9767 61.0247998 8.63859998"></polygon>
            <path d="M111.0422,3.28999999 C122.94366,3.28999999 132.5917,12.9380398 132.5917,24.8394999 C132.5917,36.7409601 122.94366,46.3889999 111.0422,46.3889999 L24.8394999,46.3889999 C12.9380398,46.3889999 3.28999999,36.7409601 3.28999999,24.8394999 C3.28999999,12.9380398 12.9380398,3.28999999 24.8394999,3.28999999 L111.0422,3.28999999 M111.0422,-6.6791017e-15 L24.8394999,-6.6791017e-15 C11.1210229,-6.6791017e-15 0,11.1210229 0,24.8394999 C0,38.5579769 11.1210229,49.6789999 24.8394999,49.6789999 L111.0422,49.6789999 C124.760677,49.6789999 135.8817,38.5579769 135.8817,24.8394999 C135.8817,11.1210229 124.760677,-6.6791017e-15 111.0422,-6.6791017e-15 Z" id="Shape"></path>
        </g>
    </g>
</svg>